<svg width="125" height="125" viewBox="0 0 125 125" fill="none" xmlns="http://www.w3.org/2000/svg">
<path d="M110 0H15C6.71573 0 0 6.71573 0 15V110C0 118.284 6.71573 125 15 125H110C118.284 125 125 118.284 125 110V15C125 6.71573 118.284 0 110 0Z" fill="white"/>
<path d="M94.45 10.8626C73.45 11.8126 51.375 12.1126 30.3375 12.1126L31.725 10.7126C31.725 28.2126 30.8 46.6001 30.8 64.1126L30.375 63.6251C35.7167 63.6251 41.0583 63.5917 46.4 63.5251C61.325 63.2376 79.55 62.8001 94.4875 62.6626C94.6767 62.6609 94.8644 62.6969 95.0396 62.7686C95.2147 62.8402 95.3739 62.9461 95.5077 63.0799C95.6415 63.2137 95.7473 63.3728 95.819 63.548C95.8906 63.7231 95.9267 63.9108 95.925 64.1001C95.925 78.8126 96.3125 99.6251 96.0875 114.1C96.0842 114.523 95.9146 114.928 95.6153 115.228C95.3159 115.527 94.9108 115.697 94.4875 115.7C79.4875 115.613 60.975 115.213 45.9625 114.825C40.575 114.65 35.1875 114.5 29.7875 114.25C29.7667 114.25 29.7461 114.246 29.7271 114.238C29.708 114.229 29.6909 114.217 29.6768 114.202C29.6627 114.187 29.6519 114.168 29.6451 114.149C29.6384 114.129 29.6358 114.108 29.6375 114.088C50.3375 112.838 73.6125 112.838 94.4875 112.5L92.875 114.138C92.7375 99.7126 92.875 78.7501 93.0375 64.1376L94.475 65.5751L78.4375 65.3626C69.175 65.2126 55.7875 64.8626 46.3875 64.7126C41.0375 64.6542 35.6958 64.6209 30.3625 64.6126C30.2365 64.6126 30.1157 64.5625 30.0266 64.4734C29.9375 64.3844 29.8875 64.2635 29.8875 64.1376C29.8875 46.6376 29 28.2501 28.9625 10.7376C28.9592 10.5506 28.9933 10.3648 29.063 10.1912C29.1326 10.0176 29.2363 9.85975 29.368 9.72692C29.4996 9.59409 29.6566 9.48899 29.8296 9.41782C30.0025 9.34665 30.188 9.31086 30.375 9.31256C35.7125 9.31256 41.05 9.31256 46.4 9.31256C55.8625 9.52506 69.1375 9.51256 78.45 9.88756C83.8 10.0751 89.1375 10.2251 94.4875 10.5001C94.675 10.5001 94.675 10.8001 94.4875 10.8126L94.45 10.8626Z" fill="#404040"/>
<path d="M41.8874 73.6004C52.8749 72.6004 64.4749 71.8879 75.4374 71.5254C78.2374 71.4087 81.0374 71.3254 83.8374 71.2754C84.8133 71.2287 85.7891 71.3687 86.7124 71.6879C88.4142 72.1994 89.8937 73.2697 90.9121 74.7258C91.9305 76.182 92.4283 77.939 92.3249 79.7129C92.3249 81.6629 92.3249 84.1129 92.3249 86.0504C92.3097 87.1982 92.0628 88.3312 91.5991 89.3813C91.1353 90.4314 90.4642 91.377 89.6261 92.1615C88.788 92.9459 87.8 93.553 86.7216 93.9463C85.6431 94.3396 84.4963 94.5111 83.3499 94.4504C73.4499 94.3504 59.5999 94.2754 49.7999 93.8504C48.5499 93.8504 44.9374 93.6629 43.6874 93.6379C42.9506 93.656 42.2324 93.8737 41.6095 94.2677C40.9865 94.6618 40.4821 95.2174 40.1499 95.8754L38.1624 99.6254C36.9124 101.963 33.2749 108.375 31.9874 110.625L29.8499 114.25L29.5624 114.113L36.7249 98.8504C37.8749 96.6004 38.8749 93.0254 41.4499 91.9879C42.7795 91.4464 44.2219 91.2403 45.6499 91.3879H49.8499L83.3999 91.3504C84.7337 91.4628 86.0636 91.0948 87.1499 90.3129C87.9383 89.6837 88.5513 88.8621 88.93 87.9273C89.3088 86.9925 89.4405 85.9759 89.3124 84.9754V78.7254C89.2251 77.7298 88.8413 76.7833 88.2108 76.0079C87.5802 75.2325 86.7318 74.6639 85.7749 74.3754C85.1444 74.1393 84.4726 74.033 83.7999 74.0629H75.3999L41.8499 73.9879V73.6004H41.8874Z" fill="#404040"/>
<path d="M89.4875 114.2C86.2717 111.406 83.7009 107.947 81.9528 104.063C80.2047 100.178 79.3209 95.9599 79.3625 91.7002L79.65 91.5752C83.2 98.9835 86.575 106.484 89.775 114.075L89.4875 114.213V114.2Z" fill="#404040"/>
<path d="M30.975 10.6499C37.5375 22.7999 43.2125 35.3749 48.7125 48.0249C50.4875 52.2624 52.325 56.4749 54.0125 60.7499H51.4375C55.625 52.3249 59.9375 43.9874 64.7 35.8874C61.1375 45.6749 57.0125 55.2499 52.7375 64.7499C44.5087 47.1241 37.2439 29.0641 30.975 10.6499Z" fill="#404040"/>
</svg>
