<svg width="175" height="60" viewBox="0 0 175 60" fill="none" xmlns="http://www.w3.org/2000/svg">
<path d="M143.35 39.4999C140.116 39.4999 137.45 39.0165 135.35 38.0499C133.283 37.0499 131.766 35.7165 130.8 34.0499C129.833 32.3832 129.35 30.5666 129.35 28.5999V28.2999H131.6V28.8999C131.6 30.6999 132 32.2332 132.8 33.4999C133.633 34.7332 134.916 35.6832 136.65 36.3499C138.383 37.0165 140.616 37.3499 143.35 37.3499C145.683 37.3499 147.616 37.1165 149.15 36.6499C150.716 36.1499 151.9 35.4165 152.7 34.4499C153.5 33.4832 153.9 32.2666 153.9 30.7999C153.9 28.6666 153.233 27.1166 151.9 26.1499C150.6 25.1832 148.6 24.3999 145.9 23.7999L139.55 22.4999C137.816 22.0999 136.183 21.5833 134.65 20.9499C133.15 20.3166 131.95 19.4333 131.05 18.2999C130.15 17.1333 129.7 15.6166 129.7 13.75C129.7 12.6833 129.933 11.6333 130.4 10.6C130.9 9.53331 131.666 8.58332 132.7 7.74999C133.733 6.91666 135.066 6.24999 136.7 5.75C138.333 5.25 140.283 5 142.55 5C145.616 5 148.116 5.5 150.05 6.49999C151.983 7.49999 153.4 8.83332 154.3 10.5C155.233 12.1333 155.7 13.9333 155.7 15.9V16.2H153.45V15.6C153.45 13.8 153.05 12.2833 152.25 11.05C151.483 9.78331 150.283 8.83332 148.65 8.19998C147.05 7.53332 145 7.19999 142.5 7.19999C140.133 7.19999 138.166 7.43332 136.6 7.89999C135.033 8.36665 133.866 9.06665 133.1 9.99998C132.333 10.9333 131.95 12.1 131.95 13.5C131.95 14.9666 132.233 16.1333 132.8 16.9999C133.4 17.8666 134.3 18.5666 135.5 19.0999C136.733 19.5999 138.283 20.0666 140.15 20.4999L146.45 21.7999C148.283 22.1666 149.933 22.6999 151.4 23.3999C152.866 24.0666 154.016 24.9832 154.85 26.1499C155.716 27.2832 156.15 28.7499 156.15 30.5499C156.15 32.0499 155.683 33.4999 154.75 34.8999C153.85 36.2665 152.466 37.3832 150.6 38.2499C148.733 39.0832 146.316 39.4999 143.35 39.4999Z" fill="#404040"/>
<path d="M131.6 28.8994V28.2998H129.35V28.5996C129.35 30.5663 129.833 32.3831 130.8 34.0498C131.766 35.7164 133.283 37.0498 135.35 38.0498C137.318 38.9561 139.785 39.4375 142.75 39.4941L143.35 39.5C146.131 39.5 148.429 39.1338 150.243 38.4014L150.6 38.25C152.466 37.3833 153.849 36.2661 154.749 34.8994C155.682 33.4994 156.149 32.0498 156.149 30.5498C156.149 28.75 155.716 27.2837 154.85 26.1504C154.016 24.9838 152.866 24.0671 151.399 23.4004C149.933 22.7004 148.283 22.1665 146.449 21.7998L140.149 20.5C138.283 20.0667 136.733 19.5996 135.5 19.0996C134.3 18.5663 133.4 17.8666 132.8 17C132.304 16.2417 132.025 15.2537 131.963 14.0361L131.949 13.5C131.949 12.1876 132.286 11.08 132.96 10.1777L133.1 10C133.818 9.125 134.889 8.45508 136.311 7.99023L136.6 7.90039C138.166 7.43373 140.133 7.2002 142.5 7.2002L142.963 7.2041C145.254 7.24315 147.149 7.57519 148.649 8.2002C150.283 8.83353 151.483 9.78314 152.25 11.0498C153.05 12.283 153.449 13.7998 153.449 15.5996V16.2002H155.699V15.9004C155.699 14.0567 155.289 12.3593 154.469 10.8086L154.3 10.5C153.456 8.93757 152.158 7.66795 150.406 6.69141L150.05 6.5C148.237 5.56253 145.927 5.06448 143.118 5.00586L142.55 5C140.283 5 138.333 5.25 136.699 5.75L136.102 5.94531C134.738 6.41929 133.603 7.02077 132.699 7.75L132.324 8.06836C131.479 8.82289 130.837 9.66652 130.399 10.5996C129.933 11.6329 129.699 12.6833 129.699 13.75L129.705 14.0957C129.758 15.8047 130.206 17.206 131.05 18.2998C131.95 19.4331 133.149 20.3169 134.649 20.9502C136.183 21.5835 137.817 22.1 139.55 22.5L145.899 23.7998C148.599 24.3998 150.599 25.1837 151.899 26.1504C153.233 27.117 153.899 28.6666 153.899 30.7998C153.899 32.2665 153.499 33.4835 152.699 34.4502L152.545 34.6279C151.75 35.5069 150.618 36.1806 149.149 36.6494C147.616 37.1161 145.683 37.3496 143.35 37.3496V36.3496C145.621 36.3496 147.445 36.1219 148.851 35.6953C150.288 35.2359 151.284 34.5912 151.929 33.8125C152.556 33.0546 152.899 32.075 152.899 30.7998C152.899 28.8828 152.312 27.6847 151.313 26.96L151.303 26.9521C150.169 26.1089 148.329 25.3644 145.683 24.7764V24.7754L139.349 23.4795L139.337 23.4775L139.325 23.4746C137.542 23.0631 135.855 22.5298 134.268 21.874L134.261 21.8711C132.626 21.1809 131.283 20.2021 130.267 18.9219L130.258 18.9111C129.19 17.5274 128.699 15.7779 128.699 13.75C128.699 12.5326 128.967 11.3428 129.488 10.1885L129.491 10.1816L129.494 10.1758C130.066 8.95501 130.936 7.88819 132.072 6.97168C133.229 6.03899 134.685 5.32103 136.407 4.79395C138.161 4.25726 140.214 4 142.55 4C145.715 4.00003 148.388 4.51421 150.509 5.61133C152.585 6.68541 154.158 8.14508 155.168 10.0039L155.354 10.3418C156.253 12.0424 156.699 13.9012 156.699 15.9004V17.2002H152.449V15.5996C152.449 13.9493 152.084 12.6319 151.41 11.5938L151.402 11.5811L151.394 11.5674C150.761 10.5229 149.754 9.70136 148.288 9.13281L148.265 9.12305C146.828 8.52448 144.921 8.20024 142.5 8.2002C140.191 8.2002 138.328 8.42865 136.885 8.8584C135.443 9.28778 134.475 9.90124 133.872 10.6348C133.275 11.3614 132.949 12.2929 132.949 13.5C132.949 14.8406 133.208 15.7904 133.628 16.4395C134.098 17.1139 134.827 17.7025 135.884 18.1758C137.051 18.6484 138.545 19.1002 140.376 19.5254H140.375L146.651 20.8203H146.65C148.544 21.1994 150.267 21.7536 151.813 22.4893C153.408 23.2145 154.698 24.2285 155.644 25.542C156.675 26.8909 157.149 28.5886 157.149 30.5498C157.149 32.2689 156.611 33.9071 155.584 35.4492C154.559 37.0064 153.013 38.2323 151.021 39.1572L151.007 39.1631C148.968 40.0734 146.398 40.5 143.35 40.5C140.026 40.5 137.204 40.0041 134.932 38.958L134.914 38.9502C132.703 37.8802 131.019 36.422 129.935 34.5518C128.878 32.7294 128.35 30.7386 128.35 28.5996V27.2998H132.6V28.8994C132.6 30.5464 132.964 31.8845 133.643 32.9609C134.336 33.9772 135.43 34.8097 137.009 35.417C138.587 36.0239 140.687 36.3496 143.35 36.3496V37.3496L142.843 37.3457C140.339 37.3066 138.274 36.9746 136.649 36.3496C134.916 35.683 133.633 34.7332 132.8 33.5C132.05 32.3125 131.651 30.8906 131.605 29.2344L131.6 28.8994Z" fill="#404040"/>
<path d="M96.0998 38.4999H93.8498V5H109.55C111.75 5 113.7 5.38333 115.4 6.14999C117.133 6.88333 118.483 7.96665 119.45 9.39998C120.416 10.8333 120.9 12.55 120.9 14.55C120.9 16.4833 120.433 18.1499 119.5 19.5499C118.6 20.9166 117.35 21.9833 115.75 22.7499C114.183 23.4833 112.35 23.8666 110.25 23.8999V24.0999C111.216 24.3333 112.033 24.7833 112.7 25.4499C113.4 26.1166 114.033 26.9166 114.6 27.8499L121.35 38.4999H118.85L112.4 28.4499C111.833 27.4832 111.2 26.6999 110.5 26.0999C109.8 25.4999 108.933 25.0499 107.9 24.7499C106.9 24.4499 105.616 24.2999 104.05 24.2999H96.0998V38.4999ZM96.0998 7.04999V22.3499H109.55C112.45 22.3499 114.683 21.7333 116.25 20.4999C117.816 19.2666 118.6 17.3333 118.6 14.7C118.6 12.1 117.816 10.1833 116.25 8.94998C114.683 7.68332 112.45 7.04999 109.55 7.04999H96.0998Z" fill="#404040"/>
<path d="M120.9 14.5498C120.9 12.6748 120.475 11.0488 119.625 9.67188L119.449 9.40039C118.483 7.96708 117.133 6.88372 115.4 6.15039C113.806 5.43163 111.992 5.04979 109.959 5.00488L109.55 5V4C111.866 4.00003 113.96 4.40388 115.811 5.23828C117.696 6.04009 119.198 7.23855 120.278 8.84082C121.373 10.4641 121.9 12.3827 121.9 14.5498C121.9 16.6502 121.391 18.5168 120.332 20.1045C119.324 21.6334 117.93 22.8139 116.182 23.6514L116.174 23.6553C115.27 24.0785 114.293 24.3894 113.249 24.5957C113.296 24.6389 113.343 24.6817 113.388 24.7266L113.39 24.7256C114.157 25.4562 114.839 26.3225 115.444 27.3145L123.167 39.5H118.303L111.558 28.9902L111.547 28.9727L111.537 28.9561C111.015 28.0652 110.449 27.3736 109.849 26.8594C109.274 26.3664 108.54 25.9768 107.621 25.71L107.612 25.708C106.74 25.4462 105.563 25.2998 104.05 25.2998H97.0998V39.5H92.8498V4H109.55V5H93.8498V38.5H96.0998V24.2998H104.05C105.616 24.2998 106.9 24.45 107.9 24.75C108.933 25.05 109.8 25.4996 110.5 26.0996C111.2 26.6996 111.833 27.4836 112.4 28.4502L118.85 38.5H121.35L114.6 27.8496C114.033 26.9164 113.399 26.1168 112.699 25.4502C112.033 24.7836 111.217 24.333 110.25 24.0996V23.9004C112.219 23.8691 113.953 23.5303 115.453 22.8838L115.75 22.75C117.35 21.9834 118.599 20.9163 119.499 19.5498C120.433 18.1498 120.9 16.4831 120.9 14.5498ZM117.6 14.7002C117.6 12.3058 116.887 10.7243 115.631 9.73535L115.621 9.72754C114.296 8.65624 112.319 8.04984 109.55 8.0498H97.0998V21.3496H109.55V22.3496H96.0998V7.0498H109.55C112.45 7.04984 114.684 7.68357 116.25 8.9502C117.817 10.1835 118.6 12.1004 118.6 14.7002L118.59 15.1855C118.498 17.5721 117.719 19.3438 116.25 20.5L115.948 20.7236C114.402 21.8077 112.269 22.3496 109.55 22.3496V21.3496C112.324 21.3496 114.305 20.7577 115.631 19.7139C116.884 18.7273 117.6 17.1328 117.6 14.7002Z" fill="#404040"/>
<path d="M70.8498 38.4999H67.7998L52.7999 5H55.3499L69.2498 36.2499H69.4498L83.3498 5H85.8498L70.8498 38.4999Z" fill="#404040"/>
<path d="M55.9991 4L69.3497 34.0146L82.7003 4H87.3936L71.4981 39.5H67.1515L51.2569 4H55.9991ZM52.7999 5L70.8497 38.5L85.8497 5H83.3497L69.4503 36.25H69.2501L55.3497 5H52.7999Z" fill="#404040"/>
<path d="M31.9999 39.4999C28.7666 39.4999 26.1 39.0165 24 38.0499C21.9333 37.0499 20.4167 35.7165 19.45 34.0499C18.4833 32.3832 18 30.5666 18 28.5999V28.2999H20.25V28.8999C20.25 30.6999 20.65 32.2332 21.45 33.4999C22.2833 34.7332 23.5666 35.6832 25.3 36.3499C27.0333 37.0165 29.2666 37.3499 31.9999 37.3499C34.3333 37.3499 36.2666 37.1165 37.7999 36.6499C39.3666 36.1499 40.5499 35.4165 41.3499 34.4499C42.1499 33.4832 42.5499 32.2666 42.5499 30.7999C42.5499 28.6666 41.8832 27.1166 40.5499 26.1499C39.2499 25.1832 37.2499 24.3999 34.5499 23.7999L28.2 22.4999C26.4666 22.0999 24.8333 21.5833 23.3 20.9499C21.8 20.3166 20.6 19.4333 19.7 18.2999C18.8 17.1333 18.35 15.6166 18.35 13.75C18.35 12.6833 18.5833 11.6333 19.05 10.6C19.55 9.53331 20.3167 8.58332 21.35 7.74999C22.3833 6.91666 23.7166 6.24999 25.35 5.75C26.9833 5.25 28.9333 5 31.1999 5C34.2666 5 36.7666 5.5 38.6999 6.49999C40.6332 7.49999 42.0499 8.83332 42.9499 10.5C43.8832 12.1333 44.3499 13.9333 44.3499 15.9V16.2H42.0999V15.6C42.0999 13.8 41.6999 12.2833 40.8999 11.05C40.1332 9.78331 38.9332 8.83332 37.2999 8.19998C35.6999 7.53332 33.6499 7.19999 31.1499 7.19999C28.7833 7.19999 26.8166 7.43332 25.25 7.89999C23.6833 8.36665 22.5166 9.06665 21.75 9.99998C20.9833 10.9333 20.6 12.1 20.6 13.5C20.6 14.9666 20.8833 16.1333 21.45 16.9999C22.05 17.8666 22.95 18.5666 24.15 19.0999C25.3833 19.5999 26.9333 20.0666 28.8 20.4999L35.0999 21.7999C36.9333 22.1666 38.5832 22.6999 40.0499 23.3999C41.5166 24.0666 42.6666 24.9832 43.4999 26.1499C44.3666 27.2832 44.7999 28.7499 44.7999 30.5499C44.7999 32.0499 44.3332 33.4999 43.3999 34.8999C42.4999 36.2665 41.1166 37.3832 39.2499 38.2499C37.3833 39.0832 34.9666 39.4999 31.9999 39.4999Z" fill="#404040"/>
<path d="M20.25 28.8994V28.2998H18V28.5996C18 30.5663 18.4835 32.3831 19.4502 34.0498C20.4169 35.7164 21.9334 37.0498 24 38.0498C25.9688 38.9561 28.4355 39.4375 31.4004 39.4941L32 39.5C34.7812 39.5 37.0791 39.1338 38.8936 38.4014L39.25 38.25C41.1167 37.3833 42.4994 36.2661 43.3994 34.8994C44.3327 33.4994 44.7998 32.0498 44.7998 30.5498C44.7998 28.75 44.3665 27.2837 43.5 26.1504C42.6667 24.9838 41.5164 24.0671 40.0498 23.4004C38.5831 22.7004 36.9329 22.1665 35.0996 21.7998L28.7998 20.5C26.9333 20.0667 25.3837 19.5996 24.1504 19.0996C22.9505 18.5663 22.0502 17.8666 21.4502 17C20.9544 16.2417 20.6753 15.2537 20.6133 14.0361L20.5996 13.5C20.5996 12.1876 20.9366 11.08 21.6104 10.1777L21.75 10C22.4688 9.125 23.5391 8.45508 24.9609 7.99023L25.25 7.90039C26.8167 7.43373 28.7837 7.2002 31.1504 7.2002L31.6133 7.2041C33.9043 7.24315 35.7998 7.57519 37.2998 8.2002C38.9331 8.83353 40.1337 9.78314 40.9004 11.0498C41.7003 12.283 42.0996 13.7998 42.0996 15.5996V16.2002H44.3496V15.9004C44.3496 14.0567 43.9394 12.3593 43.1191 10.8086L42.9502 10.5C42.1065 8.93757 40.8085 7.66795 39.0566 6.69141L38.7002 6.5C36.8878 5.56253 34.577 5.06448 31.7686 5.00586L31.2002 5C28.9335 5 26.9829 5.25 25.3496 5.75L24.752 5.94531C23.3883 6.41929 22.2539 7.02077 21.3496 7.75L20.9746 8.06836C20.1291 8.82289 19.4872 9.66652 19.0498 10.5996C18.5831 11.6329 18.3496 12.6833 18.3496 13.75L18.3555 14.0957C18.4082 15.8047 18.8564 17.206 19.7002 18.2998C20.6002 19.4331 21.7998 20.3169 23.2998 20.9502C24.8331 21.5835 26.4669 22.1 28.2002 22.5L34.5498 23.7998C37.2498 24.3998 39.2498 25.1837 40.5498 26.1504C41.883 27.117 42.5498 28.6666 42.5498 30.7998C42.5498 32.2665 42.1496 33.4835 41.3496 34.4502L41.1953 34.6279C40.4004 35.5069 39.2686 36.1806 37.7998 36.6494C36.2665 37.1161 34.3333 37.3496 32 37.3496V36.3496C34.2712 36.3496 36.0954 36.1219 37.501 35.6953C38.9379 35.2359 39.9345 34.5912 40.5791 33.8125C41.2064 33.0546 41.5498 32.075 41.5498 30.7998C41.5498 28.8827 40.9624 27.6847 39.9629 26.96L39.9531 26.9521C38.8191 26.1089 36.9792 25.3644 34.333 24.7764V24.7754L27.999 23.4795L27.9873 23.4775L27.9756 23.4746C26.1925 23.0631 24.5056 22.5298 22.918 21.874L22.9111 21.8711C21.2764 21.1809 19.9337 20.2021 18.917 18.9219L18.9082 18.9111C17.8407 17.5274 17.3496 15.7779 17.3496 13.75C17.3496 12.5326 17.6174 11.3428 18.1387 10.1885L18.1416 10.1816L18.1445 10.1758C18.7168 8.95501 19.5862 7.88819 20.7227 6.97168C21.8793 6.03899 23.3358 5.32103 25.0576 4.79395C26.8109 4.25726 28.8648 4 31.2002 4C34.365 4.00003 37.0379 4.51421 39.1592 5.61133C41.2357 6.68541 42.8087 8.14508 43.8184 10.0039L44.0039 10.3418C44.9032 12.0424 45.3496 13.9012 45.3496 15.9004V17.2002H41.0996V15.5996C41.0996 13.9493 40.7339 12.6319 40.0605 11.5938L40.0527 11.5811L40.0439 11.5674C39.4116 10.5229 38.4046 9.70136 36.9385 9.13281L36.915 9.12305C35.4783 8.52448 33.5717 8.20023 31.1504 8.2002C28.8412 8.2002 26.9779 8.42865 25.5352 8.8584C24.0938 9.28778 23.125 9.90124 22.5225 10.6348C21.9257 11.3614 21.5996 12.2929 21.5996 13.5C21.5996 14.8406 21.8588 15.7904 22.2783 16.4395C22.748 17.1139 23.4775 17.7025 24.5342 18.1758C25.7018 18.6484 27.1949 19.1002 29.0264 19.5254H29.0254L35.3018 20.8203H35.3008C37.1943 21.1994 38.9172 21.7536 40.4629 22.4893C42.0584 23.2145 43.3481 24.2285 44.2939 25.542C45.3255 26.8909 45.7998 28.5886 45.7998 30.5498C45.7998 32.2689 45.2613 33.9071 44.2344 35.4492C43.2089 37.0064 41.663 38.2323 39.6709 39.1572L39.6572 39.1631C37.6181 40.0734 35.0486 40.5 32 40.5C28.6762 40.5 25.8545 40.0041 23.582 38.958L23.5645 38.9502C21.3532 37.8802 19.6697 36.422 18.585 34.5518C17.528 32.7294 17 30.7386 17 28.5996V27.2998H21.25V28.8994C21.25 30.5464 21.6145 31.8845 22.293 32.9609C22.9868 33.9772 24.0801 34.8097 25.6592 35.417C27.2374 36.0239 29.337 36.3496 32 36.3496V37.3496L31.4932 37.3457C28.9893 37.3066 26.9248 36.9746 25.2998 36.3496C23.5667 35.683 22.2835 34.7332 21.4502 33.5C20.7002 32.3125 20.3018 30.8906 20.2549 29.2344L20.25 28.8994Z" fill="#404040"/>
<path d="M149.237 55.676C148.128 55.676 147.258 55.4572 146.627 55.0197C145.996 54.572 145.681 53.9156 145.681 53.0507V53.0202H146.352V53.0965C146.352 53.819 146.581 54.3328 147.039 54.6381C147.497 54.9332 148.23 55.0807 149.237 55.0807C150.173 55.0807 150.829 54.9637 151.206 54.7297C151.582 54.4855 151.771 54.1141 151.771 53.6155C151.771 53.1576 151.623 52.832 151.328 52.6386C151.033 52.4351 150.539 52.2774 149.847 52.1655L147.879 51.8755C147.217 51.7737 146.683 51.5854 146.276 51.3107C145.879 51.0258 145.681 50.573 145.681 49.9523C145.681 49.5147 145.813 49.1433 146.077 48.8381C146.352 48.5226 146.729 48.2835 147.207 48.1207C147.695 47.9579 148.255 47.8765 148.886 47.8765C149.568 47.8765 150.163 47.9731 150.672 48.1665C151.191 48.3598 151.598 48.6549 151.893 49.0517C152.188 49.4384 152.335 49.9217 152.335 50.5018V50.5323H151.664V50.456C151.664 50.0184 151.577 49.6521 151.404 49.357C151.231 49.0619 150.941 48.8381 150.534 48.6854C150.127 48.5328 149.573 48.4565 148.871 48.4565C147.996 48.4565 147.354 48.5735 146.947 48.8075C146.551 49.0416 146.352 49.4231 146.352 49.9523C146.352 50.3898 146.484 50.7104 146.749 50.9139C147.024 51.1072 147.492 51.2547 148.153 51.3565L150.061 51.6465C150.794 51.7483 151.374 51.9467 151.801 52.2418C152.229 52.5267 152.442 52.9744 152.442 53.5849C152.442 54.053 152.3 54.4448 152.015 54.7602C151.73 55.0655 151.343 55.2944 150.855 55.4471C150.377 55.5997 149.837 55.676 149.237 55.676Z" fill="#404040"/>
<path d="M146.352 53.0962V53.02H145.681V53.0503C145.681 53.9152 145.996 54.5723 146.627 55.02C147.179 55.4028 147.914 55.6176 148.832 55.6655L149.237 55.6763C149.837 55.6762 150.376 55.5993 150.854 55.4468C151.282 55.3133 151.632 55.1219 151.903 54.8716L152.015 54.7603C152.264 54.4843 152.404 54.15 152.435 53.7573L152.442 53.5845C152.442 52.9742 152.228 52.5265 151.801 52.2417C151.427 51.9837 150.936 51.7991 150.329 51.689L150.061 51.647L148.153 51.3569C147.492 51.2552 147.024 51.1069 146.749 50.9136C146.518 50.7355 146.387 50.468 146.358 50.1108L146.352 49.9526C146.352 49.4235 146.55 49.0412 146.947 48.8071C147.354 48.5731 147.996 48.4565 148.871 48.4565L149.127 48.4604C149.709 48.4771 150.178 48.5516 150.534 48.6851C150.941 48.8377 151.231 49.0619 151.404 49.3569C151.577 49.6519 151.664 50.0182 151.664 50.4556V50.5327H152.336V50.5015C152.336 49.9216 152.188 49.4379 151.893 49.0513C151.634 48.7043 151.291 48.435 150.861 48.2437L150.672 48.1665C150.163 47.9732 149.567 47.8765 148.886 47.8765C148.255 47.8765 147.695 47.9578 147.207 48.1206C146.729 48.2834 146.352 48.5229 146.077 48.8384C145.813 49.1436 145.681 49.5153 145.681 49.9526L145.69 50.1772C145.734 50.6836 145.929 51.0618 146.276 51.311C146.683 51.5856 147.218 51.7738 147.879 51.8755L149.848 52.1655C150.539 52.2774 151.033 52.4347 151.328 52.6382C151.623 52.8315 151.77 53.1578 151.77 53.6157L151.762 53.7964C151.72 54.2049 151.535 54.5163 151.206 54.73L151.052 54.812C150.661 54.9912 150.056 55.0805 149.237 55.0806V54.8306C150.168 54.8305 150.762 54.7112 151.074 54.5171C151.368 54.3248 151.52 54.0385 151.52 53.6157C151.52 53.2142 151.395 52.9818 151.191 52.8481L151.186 52.8442C150.939 52.6736 150.491 52.5232 149.808 52.4126V52.4116L147.842 52.1226H147.841C147.155 52.0171 146.582 51.8195 146.136 51.5181L146.13 51.5142C145.65 51.1698 145.431 50.6295 145.431 49.9526C145.431 49.4603 145.581 49.029 145.889 48.6743L146.01 48.5454C146.304 48.2553 146.679 48.0366 147.126 47.8843L147.128 47.8833C147.647 47.7104 148.234 47.6265 148.886 47.6265C149.589 47.6265 150.215 47.7264 150.758 47.9321H150.759C151.316 48.1398 151.765 48.4611 152.092 48.8999L152.209 49.0688C152.463 49.4741 152.586 49.9556 152.586 50.5015V50.7827H151.414V50.4556C151.414 50.0506 151.333 49.7312 151.188 49.4839C151.052 49.2504 150.814 49.0575 150.446 48.9194C150.079 48.7819 149.559 48.7066 148.871 48.7065C148.009 48.7065 147.422 48.8221 147.073 49.022L147.074 49.0229C146.766 49.2046 146.602 49.4965 146.602 49.9526C146.603 50.3369 146.716 50.571 146.899 50.7134C147.126 50.8699 147.543 51.0092 148.189 51.1089H148.19L150.099 51.3989H150.098C150.853 51.504 151.474 51.7113 151.943 52.0356H151.942C152.451 52.3762 152.692 52.9099 152.692 53.5845C152.692 54.1077 152.531 54.562 152.2 54.9282L152.197 54.9312C151.877 55.2743 151.45 55.5234 150.93 55.686L150.929 55.6851C150.422 55.8464 149.858 55.9262 149.237 55.9263C148.099 55.9263 147.172 55.7019 146.484 55.2251L146.482 55.2231C145.777 54.7225 145.431 53.9851 145.431 53.0503V52.77H146.602V53.0962C146.602 53.7624 146.809 54.1832 147.175 54.4282L147.336 54.5181C147.743 54.7173 148.367 54.8306 149.237 54.8306V55.0806L148.872 55.0737C148.168 55.0461 147.619 54.9354 147.224 54.7417L147.039 54.6382C146.638 54.3711 146.413 53.9443 146.363 53.3579L146.352 53.0962Z" fill="#404040"/>
<path d="M140.867 55.676C140.063 55.676 139.371 55.5081 138.791 55.1723C138.211 54.8365 137.764 54.3735 137.448 53.7834C137.143 53.1932 136.99 52.5216 136.99 51.7686C136.99 51.0258 137.143 50.3593 137.448 49.7691C137.764 49.1789 138.211 48.7159 138.791 48.3802C139.371 48.0444 140.063 47.8765 140.867 47.8765C141.559 47.8765 142.18 48.0138 142.729 48.2886C143.279 48.5531 143.711 48.9449 144.027 49.4638C144.342 49.9726 144.5 50.5933 144.5 51.326C144.5 51.4583 144.49 51.5854 144.469 51.7076C144.459 51.8297 144.444 51.9314 144.424 52.0128H137.402V51.5244H144.103L143.844 51.8144C143.854 51.7126 143.859 51.6109 143.859 51.5091C143.869 51.3972 143.874 51.2853 143.874 51.1733C143.874 50.2982 143.604 49.6267 143.065 49.1586C142.536 48.6905 141.798 48.4565 140.852 48.4565C139.743 48.4565 138.929 48.7516 138.41 49.3417C137.901 49.9319 137.647 50.7154 137.647 51.6923V51.8297C137.647 52.8167 137.901 53.6053 138.41 54.1955C138.919 54.7857 139.733 55.0807 140.852 55.0807C141.819 55.0807 142.536 54.9027 143.004 54.5465C143.482 54.1904 143.721 53.702 143.721 53.0813V52.9897H144.393V53.0813C144.393 53.59 144.235 54.0428 143.92 54.4397C143.615 54.8264 143.192 55.1316 142.653 55.3555C142.124 55.5692 141.529 55.676 140.867 55.676Z" fill="#404040"/>
<path d="M143.472 53.0815V52.7397H144.643V53.0815C144.643 53.646 144.465 54.1523 144.115 54.5933L144.116 54.5942C143.78 55.02 143.32 55.3493 142.749 55.5864L142.746 55.5874C142.183 55.8147 141.556 55.9263 140.867 55.9263C140.028 55.9263 139.291 55.7509 138.666 55.3892C138.046 55.0301 137.565 54.5322 137.228 53.9009L137.226 53.8979V53.897C136.9 53.2672 136.74 52.556 136.74 51.769C136.74 50.991 136.901 50.2835 137.227 49.6538L137.228 49.6509C137.565 49.0197 138.046 48.5226 138.666 48.1636C139.291 47.8018 140.028 47.6265 140.867 47.6265C141.591 47.6265 142.25 47.7702 142.837 48.063C143.429 48.3482 143.899 48.7728 144.239 49.3325L144.36 49.5464C144.623 50.0574 144.75 50.6533 144.75 51.3257C144.75 51.4633 144.738 51.5972 144.718 51.7271L144.719 51.728C144.708 51.8581 144.691 51.9748 144.666 52.0737L144.619 52.2632H143.777L143.519 52.5522L143.548 52.2632H137.917C137.981 52.9989 138.212 53.5839 138.599 54.0327C139.042 54.547 139.773 54.8305 140.852 54.8306V55.0806C139.802 55.0805 139.022 54.821 138.509 54.3022L138.41 54.1958C137.933 53.6427 137.682 52.9149 137.652 52.0132H144.424L144.45 51.8755C144.458 51.8246 144.465 51.7686 144.47 51.7075C144.49 51.5854 144.5 51.4579 144.5 51.3257C144.5 50.5932 144.342 49.9721 144.026 49.4634C143.75 49.0095 143.385 48.6533 142.93 48.394L142.73 48.2886C142.249 48.0482 141.713 47.9133 141.123 47.8833L140.867 47.8765C140.063 47.8765 139.371 48.0446 138.791 48.3804L138.58 48.5122C138.102 48.8338 137.724 49.2527 137.448 49.769L137.341 49.9937C137.107 50.5268 136.99 51.119 136.99 51.769L136.997 52.0474C137.031 52.6883 137.181 53.2673 137.448 53.7837C137.764 54.3737 138.211 54.8366 138.791 55.1724C139.299 55.4662 139.892 55.6318 140.571 55.6685L140.867 55.6763C141.446 55.6763 141.974 55.5938 142.451 55.4302L142.653 55.356C143.193 55.1321 143.615 54.8265 143.92 54.4399C144.235 54.0432 144.393 53.5902 144.393 53.0815V52.9897H143.722V53.0815L143.71 53.3081C143.658 53.8221 143.422 54.2348 143.004 54.5464C142.536 54.9025 141.818 55.0806 140.852 55.0806V54.8306C141.796 54.8306 142.448 54.6549 142.853 54.3472L142.855 54.3462C143.266 54.0395 143.472 53.6269 143.472 53.0815ZM143.624 51.1733C143.624 50.3529 143.374 49.7572 142.901 49.3472L142.899 49.3462C142.43 48.9306 141.758 48.7065 140.852 48.7065C139.785 48.7066 139.052 48.9885 138.598 49.5044L138.599 49.5054C138.21 49.9567 137.979 50.5412 137.916 51.2739H143.619C143.62 51.2404 143.624 51.2069 143.624 51.1733ZM143.87 51.3413C143.868 51.3972 143.864 51.4533 143.858 51.5093C143.858 51.5142 143.858 51.519 143.858 51.5239H137.652C137.68 50.6251 137.931 49.8972 138.41 49.3413C138.929 48.7515 139.743 48.4566 140.852 48.4565L141.197 48.4673C141.98 48.5185 142.603 48.7492 143.065 49.1587C143.605 49.6268 143.874 50.2984 143.874 51.1733L143.87 51.3413Z" fill="#404040"/>
<path d="M132.177 55.676C131.404 55.676 130.722 55.5081 130.132 55.1723C129.552 54.8264 129.099 54.3583 128.774 53.7681C128.458 53.1779 128.3 52.5114 128.3 51.7686C128.3 51.0258 128.458 50.3593 128.774 49.7691C129.099 49.1789 129.552 48.7159 130.132 48.3802C130.722 48.0444 131.404 47.8765 132.177 47.8765C132.839 47.8765 133.444 48.0037 133.994 48.258C134.543 48.5023 134.981 48.8482 135.306 49.296C135.642 49.7437 135.81 50.2626 135.81 50.8528V50.9444H135.138V50.8681C135.138 50.1253 134.879 49.5453 134.36 49.1281C133.851 48.7007 133.124 48.487 132.177 48.487C131.058 48.487 130.244 48.7872 129.735 49.3875C129.226 49.9777 128.972 50.7714 128.972 51.7686C128.972 52.7658 129.226 53.5646 129.735 54.1649C130.244 54.7551 131.058 55.0502 132.177 55.0502C133.124 55.0502 133.851 54.8416 134.36 54.4244C134.879 53.9971 135.138 53.417 135.138 52.6844V52.5928H135.81V52.6844C135.81 53.2644 135.642 53.7834 135.306 54.2413C134.981 54.689 134.543 55.04 133.994 55.2944C133.444 55.5488 132.839 55.676 132.177 55.676Z" fill="#404040"/>
<path d="M134.888 52.6841V52.3433H136.06V52.6841C136.06 53.3156 135.875 53.8857 135.507 54.3872L135.508 54.3882C135.155 54.8735 134.683 55.2504 134.098 55.521C133.513 55.7919 132.871 55.9263 132.177 55.9263C131.367 55.9263 130.641 55.7492 130.008 55.3892L130.003 55.3872C129.386 55.0186 128.901 54.5181 128.554 53.8892L128.553 53.8862C128.216 53.2561 128.05 52.5482 128.05 51.769C128.05 50.9897 128.216 50.2812 128.553 49.6509L128.554 49.6479C128.902 49.0183 129.387 48.5222 130.006 48.1636L130.008 48.1626C130.641 47.8026 131.367 47.6265 132.177 47.6265C132.871 47.6265 133.513 47.7599 134.098 48.0308H134.097C134.681 48.2907 135.153 48.6617 135.506 49.146L135.636 49.3345C135.919 49.7834 136.06 50.292 136.06 50.853V51.1948H134.888V50.8677C134.888 50.191 134.656 49.6865 134.204 49.3228L134.199 49.3198C133.751 48.9435 133.089 48.7368 132.177 48.7368C131.099 48.7368 130.369 49.0256 129.925 49.5493L129.924 49.5503C129.465 50.0836 129.222 50.8146 129.222 51.769C129.222 52.7217 129.464 53.4576 129.923 54.0015H129.924C130.368 54.5159 131.098 54.8003 132.177 54.8003V55.0503L131.772 55.0366C130.859 54.9721 130.18 54.681 129.735 54.1646C129.29 53.6393 129.04 52.9623 128.984 52.1333L128.972 51.769C128.972 50.7718 129.226 49.9774 129.735 49.3872C130.244 48.7869 131.058 48.4868 132.177 48.4868L132.522 48.4966C133.302 48.5433 133.915 48.7545 134.36 49.1284C134.879 49.5455 135.138 50.1251 135.138 50.8677V50.9448H135.81V50.853C135.81 50.3367 135.681 49.8746 135.424 49.4673L135.306 49.2964C135.021 48.9045 134.65 48.59 134.194 48.354L133.994 48.2583C133.513 48.0357 132.989 47.9101 132.422 47.8823L132.177 47.8765C131.404 47.8765 130.723 48.0447 130.132 48.3804C129.552 48.7161 129.1 49.179 128.774 49.769L128.663 49.9937C128.421 50.5268 128.3 51.119 128.3 51.769L128.308 52.0435C128.343 52.6768 128.498 53.2516 128.774 53.7681C129.1 54.3582 129.552 54.8264 130.132 55.1724C130.649 55.466 131.235 55.6317 131.891 55.6685L132.177 55.6763C132.756 55.6763 133.292 55.579 133.785 55.3843L133.994 55.2944C134.543 55.0401 134.981 54.6893 135.306 54.2417C135.642 53.7838 135.81 53.2641 135.81 52.6841V52.5933H135.138V52.6841C135.138 53.4167 134.879 53.9969 134.36 54.4243L134.159 54.5708C133.666 54.8902 133.005 55.0503 132.177 55.0503V54.8003C133.09 54.8003 133.753 54.5982 134.201 54.231C134.656 53.8557 134.888 53.3496 134.888 52.6841Z" fill="#404040"/>
<path d="M126.717 55.5233H126.03V48.029H126.717V55.5233ZM126.717 46.9911H126.03V45.2969H126.717V46.9911Z" fill="#404040"/>
<path d="M126.716 48.0293H126.03V55.5234H126.716V48.0293ZM126.716 45.2969H126.03V46.9912H126.716V45.2969ZM126.966 55.7734H125.78V47.7793H126.966V55.7734ZM126.966 47.2412H125.78V45.0469H126.966V47.2412Z" fill="#404040"/>
<path d="M121.182 55.5236H120.373L116.725 48.0293H117.442L120.754 54.852H120.815L124.112 48.0293H124.83L121.182 55.5236Z" fill="#404040"/>
<path d="M117.599 47.7793L120.784 54.3408L123.955 47.7793H125.23L121.338 55.7734H120.216L116.325 47.7793H117.599ZM116.725 48.0293L120.372 55.5234H121.182L124.829 48.0293H124.112L120.816 54.8516H120.754L117.442 48.0293H116.725Z" fill="#404040"/>
<path d="M110.976 55.5234H110.289V48.0291H110.885V50.1202L110.976 50.1965V55.5234ZM110.976 51.5397H110.732V50.0744H110.946C111.027 49.6775 111.175 49.3112 111.388 48.9754C111.612 48.6396 111.907 48.3751 112.274 48.1817C112.65 47.9782 113.103 47.8765 113.632 47.8765C114.212 47.8765 114.69 48.0037 115.067 48.258C115.443 48.5124 115.718 48.8482 115.891 49.2654C116.074 49.6724 116.166 50.1049 116.166 50.5628V51.1275H115.494V50.6239C115.494 49.9116 115.331 49.3774 115.006 49.0212C114.69 48.6549 114.171 48.4717 113.449 48.4717C112.604 48.4717 111.979 48.7414 111.572 49.2807C111.175 49.82 110.976 50.573 110.976 51.5397Z" fill="#404040"/>
<path d="M116.165 50.563C116.165 50.1051 116.074 49.6722 115.891 49.2651C115.74 48.9002 115.511 48.5973 115.203 48.3569L115.067 48.2583C114.737 48.0358 114.33 47.9102 113.845 47.8823L113.632 47.8765C113.103 47.8765 112.65 47.9786 112.274 48.1821L112.14 48.2573C111.835 48.4421 111.584 48.6812 111.388 48.9751C111.174 49.3109 111.027 49.6779 110.946 50.0747H110.885V48.0288H110.289V55.5229H110.976V51.5396C110.976 50.5729 111.175 49.82 111.572 49.2808C111.979 48.7415 112.604 48.4722 113.449 48.4722L113.71 48.48C114.298 48.52 114.73 48.7005 115.006 49.021C115.332 49.3771 115.494 49.9115 115.495 50.6235V51.1274H116.165V50.563ZM111.135 48.9136C111.15 48.8898 111.162 48.8648 111.177 48.8413L111.18 48.8364C111.428 48.4651 111.755 48.1727 112.157 47.9604C112.577 47.7338 113.072 47.6265 113.632 47.6265C114.248 47.6265 114.779 47.7622 115.206 48.0513C115.621 48.3315 115.927 48.7031 116.12 49.1626L116.189 49.3296C116.34 49.7205 116.415 50.1324 116.415 50.563V51.3774H115.245V50.6235C115.244 49.9448 115.089 49.4822 114.822 49.1899L114.816 49.1841V49.1831C114.567 48.8952 114.134 48.7222 113.449 48.7222C112.662 48.7222 112.12 48.9686 111.772 49.4282L111.773 49.4292C111.419 49.9102 111.226 50.6036 111.226 51.5396V55.7729H110.039V47.7788H111.135V48.9136Z" fill="#404040"/>
<path d="M105.064 55.676C104.26 55.676 103.568 55.5081 102.988 55.1723C102.408 54.8365 101.961 54.3735 101.645 53.7834C101.34 53.1932 101.187 52.5216 101.187 51.7686C101.187 51.0258 101.34 50.3593 101.645 49.7691C101.961 49.1789 102.408 48.7159 102.988 48.3802C103.568 48.0444 104.26 47.8765 105.064 47.8765C105.756 47.8765 106.377 48.0138 106.926 48.2886C107.476 48.5531 107.908 48.9449 108.224 49.4638C108.539 49.9726 108.697 50.5933 108.697 51.326C108.697 51.4583 108.687 51.5854 108.666 51.7076C108.656 51.8297 108.641 51.9314 108.62 52.0128H101.599V51.5244H108.3L108.04 51.8144C108.051 51.7126 108.056 51.6109 108.056 51.5091C108.066 51.3972 108.071 51.2853 108.071 51.1733C108.071 50.2982 107.801 49.6267 107.262 49.1586C106.733 48.6905 105.995 48.4565 105.049 48.4565C103.94 48.4565 103.126 48.7516 102.607 49.3417C102.098 49.9319 101.843 50.7154 101.843 51.6923V51.8297C101.843 52.8167 102.098 53.6053 102.607 54.1955C103.115 54.7857 103.929 55.0807 105.049 55.0807C106.015 55.0807 106.733 54.9027 107.201 54.5465C107.679 54.1904 107.918 53.702 107.918 53.0813V52.9897H108.59V53.0813C108.59 53.59 108.432 54.0428 108.117 54.4397C107.811 54.8264 107.389 55.1316 106.85 55.3555C106.321 55.5692 105.725 55.676 105.064 55.676Z" fill="#404040"/>
<path d="M107.669 53.0815V52.7397H108.84V53.0815C108.839 53.646 108.662 54.1523 108.312 54.5933L108.313 54.5942C107.977 55.02 107.517 55.3493 106.946 55.5864L106.943 55.5874C106.38 55.8147 105.752 55.9263 105.064 55.9263C104.225 55.9263 103.488 55.7509 102.863 55.3892C102.243 55.0301 101.762 54.5322 101.424 53.9009L101.423 53.8979V53.897C101.097 53.2672 100.937 52.556 100.937 51.769C100.937 50.991 101.098 50.2835 101.423 49.6538L101.424 49.6509C101.762 49.0197 102.243 48.5226 102.863 48.1636C103.488 47.8018 104.225 47.6265 105.064 47.6265C105.788 47.6265 106.447 47.7702 107.034 48.063C107.626 48.3482 108.096 48.7728 108.436 49.3325L108.557 49.5464C108.82 50.0574 108.947 50.6533 108.947 51.3257C108.947 51.4632 108.935 51.5971 108.915 51.7271L108.916 51.728C108.905 51.8581 108.888 51.9748 108.863 52.0737L108.816 52.2632H107.974L107.715 52.5522L107.745 52.2632H102.114C102.178 52.9989 102.409 53.5839 102.796 54.0327C103.239 54.547 103.969 54.8305 105.048 54.8306V55.0806C103.999 55.0805 103.218 54.821 102.706 54.3022L102.607 54.1958C102.13 53.6427 101.879 52.9149 101.849 52.0132H108.621L108.647 51.8755C108.655 51.8246 108.662 51.7686 108.667 51.7075C108.687 51.5854 108.697 51.4579 108.697 51.3257C108.697 50.5932 108.539 49.9721 108.223 49.4634C107.947 49.0095 107.582 48.6533 107.127 48.394L106.926 48.2886C106.446 48.0482 105.91 47.9133 105.32 47.8833L105.064 47.8765C104.26 47.8765 103.568 48.0446 102.988 48.3804L102.777 48.5122C102.298 48.8338 101.921 49.2527 101.645 49.769L101.538 49.9937C101.304 50.5268 101.187 51.119 101.187 51.769L101.194 52.0474C101.227 52.6883 101.378 53.2673 101.645 53.7837C101.961 54.3737 102.408 54.8366 102.988 55.1724C103.496 55.4662 104.089 55.6318 104.768 55.6685L105.064 55.6763C105.643 55.6763 106.171 55.5938 106.648 55.4302L106.85 55.356C107.389 55.1321 107.812 54.8265 108.117 54.4399C108.432 54.0432 108.589 53.5902 108.59 53.0815V52.9897H107.919V53.0815L107.907 53.3081C107.855 53.8221 107.619 54.2348 107.201 54.5464C106.733 54.9025 106.015 55.0806 105.048 55.0806V54.8306C105.993 54.8306 106.645 54.6549 107.049 54.3472L107.051 54.3462C107.463 54.0395 107.669 53.6269 107.669 53.0815ZM107.821 51.1733C107.821 50.3529 107.571 49.7572 107.098 49.3472L107.096 49.3462C106.627 48.9306 105.955 48.7065 105.048 48.7065C103.982 48.7066 103.249 48.9885 102.795 49.5044L102.796 49.5054C102.407 49.9567 102.176 50.5412 102.113 51.2739H107.816C107.817 51.2404 107.821 51.2069 107.821 51.1733ZM108.067 51.3413C108.065 51.3972 108.06 51.4533 108.055 51.5093C108.055 51.5142 108.055 51.519 108.055 51.5239H101.849C101.877 50.6251 102.128 49.8972 102.607 49.3413C103.126 48.7515 103.94 48.4566 105.048 48.4565L105.394 48.4673C106.176 48.5185 106.799 48.7492 107.262 49.1587C107.801 49.6268 108.071 50.2984 108.071 51.1733L108.067 51.3413Z" fill="#404040"/>
<path d="M96.1576 55.6762C95.1706 55.6762 94.3565 55.5287 93.7155 55.2336C93.0846 54.9283 92.6216 54.5213 92.3265 54.0125C92.0314 53.5037 91.8839 52.9492 91.8839 52.3488V52.2572H92.5707V52.4404C92.5707 52.9899 92.6928 53.4579 92.937 53.8446C93.1914 54.2211 93.5832 54.5111 94.1123 54.7146C94.6414 54.9181 95.3232 55.0199 96.1576 55.0199C96.8699 55.0199 97.4601 54.9487 97.9281 54.8062C98.4064 54.6536 98.7676 54.4297 99.0118 54.1346C99.2561 53.8395 99.3782 53.4681 99.3782 53.0204C99.3782 52.3692 99.1747 51.896 98.7676 51.6009C98.3708 51.3058 97.7603 51.0667 96.936 50.8835L94.9976 50.4867C94.4685 50.3646 93.9699 50.2069 93.5018 50.0135C93.0439 49.8202 92.6776 49.5505 92.4028 49.2046C92.1281 48.8484 91.9907 48.3854 91.9907 47.8156C91.9907 47.49 92.062 47.1695 92.2044 46.854C92.357 46.5284 92.5911 46.2384 92.9065 45.984C93.222 45.7296 93.629 45.5261 94.1276 45.3735C94.6262 45.2208 95.2215 45.1445 95.9134 45.1445C96.8495 45.1445 97.6127 45.2972 98.2029 45.6024C98.7931 45.9077 99.2255 46.3147 99.5003 46.8235C99.7852 47.3221 99.9276 47.8716 99.9276 48.4719V48.5635H99.2408V48.3804C99.2408 47.8309 99.1187 47.3679 98.8745 46.9914C98.6404 46.6047 98.2741 46.3147 97.7755 46.1214C97.2871 45.9179 96.6613 45.8161 95.8981 45.8161C95.1757 45.8161 94.5753 45.8873 94.0971 46.0298C93.6188 46.1723 93.2627 46.3859 93.0286 46.6709C92.7946 46.9558 92.6776 47.3119 92.6776 47.7393C92.6776 48.187 92.7641 48.5432 92.937 48.8077C93.1202 49.0723 93.3949 49.286 93.7613 49.4488C94.1378 49.6014 94.6109 49.7439 95.1808 49.8762L97.1039 50.273C97.6636 50.3849 98.1673 50.5477 98.615 50.7614C99.0627 50.9649 99.4138 51.2448 99.6682 51.6009C99.9327 51.9469 100.065 52.3946 100.065 52.9441C100.065 53.402 99.9226 53.8446 99.6376 54.272C99.3629 54.6892 98.9406 55.0301 98.3708 55.2946C97.801 55.549 97.0632 55.6762 96.1576 55.6762Z" fill="#404040"/>
<path d="M92.5704 52.4404V52.2568H91.8839V52.3486C91.8839 52.949 92.0312 53.5039 92.3263 54.0127C92.6214 54.5215 93.085 54.9281 93.7159 55.2334C94.3569 55.5284 95.1706 55.6758 96.1573 55.6758C96.9499 55.6758 97.6141 55.5786 98.1495 55.3838L98.3712 55.2949C98.9408 55.0304 99.3631 54.6895 99.6378 54.2725C99.8871 53.8986 100.028 53.5125 100.059 53.1152L100.065 52.9443C100.065 52.3949 99.9326 51.9466 99.6681 51.6006C99.4138 51.2447 99.0628 50.9652 98.6153 50.7617C98.2794 50.6014 97.9117 50.4693 97.5128 50.3662L97.1036 50.2734L95.1808 49.876C94.7534 49.7768 94.3802 49.6722 94.0616 49.5615L93.7608 49.4492C93.3946 49.2864 93.1197 49.0721 92.9366 48.8076C92.7854 48.5762 92.7007 48.2747 92.6817 47.9033L92.6778 47.7393C92.6778 47.3654 92.7673 47.0461 92.9464 46.7812L93.0284 46.6709C93.2332 46.4215 93.532 46.2272 93.9239 46.0869L94.0968 46.0303C94.575 45.8878 95.1761 45.8164 95.8985 45.8164L96.1778 45.8213C96.8155 45.8435 97.3481 45.9431 97.7755 46.1211C98.274 46.3144 98.6401 46.6047 98.8741 46.9912C99.1183 47.3676 99.2403 47.8306 99.2403 48.3799V48.5635H99.9278V48.4717C99.9278 47.8714 99.785 47.3218 99.5001 46.8232C99.2597 46.3782 98.8988 46.011 98.4171 45.7217L98.2032 45.6025C97.613 45.2973 96.8493 45.1445 95.9132 45.1445C95.2216 45.1445 94.6265 45.2205 94.128 45.373L93.7706 45.4971C93.431 45.6306 93.1429 45.7936 92.9063 45.9844L92.7921 46.0811C92.5339 46.3114 92.3378 46.5696 92.2042 46.8545C92.0619 47.1697 91.9904 47.49 91.9903 47.8154C91.9903 48.385 92.1279 48.848 92.4024 49.2041C92.6772 49.5501 93.0441 49.8203 93.502 50.0137C93.9699 50.2069 94.4683 50.3643 94.9972 50.4863L96.9356 50.8838C97.7598 51.0669 98.3708 51.3055 98.7677 51.6006C99.1747 51.8957 99.378 52.3693 99.378 53.0205L99.3722 53.1846C99.3455 53.5597 99.2255 53.8765 99.0118 54.1348L98.9151 54.2422C98.6758 54.4848 98.3463 54.6731 97.9278 54.8066C97.4598 54.949 96.8694 55.0195 96.1573 55.0195V54.7695C96.8522 54.7695 97.4141 54.7001 97.8497 54.5684C98.2962 54.4259 98.6139 54.2239 98.8194 53.9756C99.0204 53.7327 99.128 53.4203 99.128 53.0205C99.128 52.4235 98.9445 52.0383 98.6212 51.8037L98.6183 51.8018C98.2635 51.538 97.6944 51.3089 96.8858 51.1289L94.9474 50.7314L94.9415 50.7305C94.3999 50.6055 93.888 50.4431 93.4063 50.2441H93.4044C92.9129 50.0366 92.511 49.7429 92.2071 49.3604L92.2052 49.3574C91.8886 48.947 91.7403 48.4256 91.7403 47.8154C91.7404 47.4522 91.8206 47.0966 91.9767 46.751L91.9776 46.748C92.1483 46.3839 92.4079 46.0642 92.7491 45.7891C93.0954 45.5098 93.534 45.2942 94.0548 45.1348C94.5833 44.973 95.2042 44.8945 95.9132 44.8945C96.8739 44.8945 97.6803 45.0513 98.3175 45.3809C98.9431 45.7045 99.4137 46.1428 99.7159 46.6992H99.7169C100.024 47.2373 100.178 47.83 100.178 48.4717V48.8135H98.9903V48.3799C98.9903 47.868 98.8776 47.4546 98.6651 47.127L98.6602 47.1211C98.4598 46.7899 98.1416 46.5317 97.6847 46.3545L97.6798 46.3525C97.2322 46.1661 96.6419 46.0664 95.8985 46.0664C95.1904 46.0664 94.6153 46.1363 94.1681 46.2695C93.7215 46.4026 93.4147 46.5943 93.2218 46.8291C93.0302 47.0623 92.9278 47.3601 92.9278 47.7393C92.9278 48.1539 93.0075 48.455 93.1427 48.665L93.2032 48.7461C93.3526 48.9287 93.566 49.0873 93.8546 49.2168C94.2135 49.3623 94.6715 49.5008 95.2306 49.6309L97.1544 50.0283H97.1534C97.7283 50.1433 98.2502 50.3115 98.7179 50.5342H98.7188C99.1985 50.7523 99.5839 51.0565 99.8663 51.4492L99.9737 51.6035C100.206 51.9763 100.315 52.4281 100.315 52.9443C100.314 53.4574 100.155 53.9479 99.8458 54.4111C99.5397 54.8753 99.0762 55.2427 98.4757 55.5215L98.4727 55.5225C97.8598 55.7961 97.0835 55.9258 96.1573 55.9258C95.148 55.9258 94.2955 55.7757 93.6114 55.4609L93.6065 55.459C92.9395 55.1362 92.4351 54.6974 92.1104 54.1377C91.7928 53.59 91.6339 52.992 91.6339 52.3486V52.0068H92.8204V52.4404C92.8204 52.9507 92.9335 53.3692 93.1466 53.708C93.366 54.031 93.7107 54.2924 94.2022 54.4814C94.6925 54.67 95.3407 54.7695 96.1573 54.7695V55.0195C95.4272 55.0195 94.8139 54.942 94.3175 54.7861L94.1124 54.7148C93.5833 54.5113 93.191 54.2212 92.9366 53.8447C92.723 53.5064 92.603 53.1055 92.5763 52.6426L92.5704 52.4404Z" fill="#404040"/>
<path d="M87.4107 55.5233H86.7239V45.2969H87.4107V55.5233Z" fill="#404040"/>
<path d="M87.4104 45.2969H86.7239V55.5234H87.4104V45.2969ZM87.6604 55.7734H86.4739V45.0469H87.6604V55.7734Z" fill="#404040"/>
<path d="M84.7557 55.5234H84.1604V53.3865L84.1146 53.2949V50.807C84.1146 49.993 83.9213 49.4028 83.5346 49.0365C83.1479 48.6702 82.5069 48.487 81.6114 48.487C80.7261 48.487 80.0444 48.66 79.5661 49.0059C79.0879 49.3519 78.8488 49.8963 78.8488 50.6391V50.7154H78.1772V50.6391C78.1772 50.1405 78.3095 49.6826 78.574 49.2654C78.8386 48.8482 79.2303 48.5124 79.7493 48.258C80.2682 48.0037 80.8991 47.8765 81.6419 47.8765C82.3848 47.8765 82.98 48.0087 83.4278 48.2733C83.8857 48.5277 84.2214 48.8737 84.4351 49.3112C84.6488 49.7386 84.7557 50.2118 84.7557 50.7307V55.5234ZM80.4361 55.676C79.7239 55.676 79.1388 55.5132 78.6809 55.1876C78.223 54.8518 77.994 54.3888 77.994 53.7986C77.994 53.3713 78.1009 53.0304 78.3145 52.776C78.5384 52.5216 78.8335 52.3283 79.1998 52.196C79.5661 52.0535 79.9681 51.9569 80.4056 51.906L84.2672 51.4633V51.967L80.6498 52.3791C79.9884 52.4402 79.4898 52.5674 79.154 52.7607C78.8284 52.9439 78.6656 53.2746 78.6656 53.7528C78.6656 54.1904 78.8131 54.5262 79.1082 54.7602C79.4135 54.9943 79.8918 55.1113 80.543 55.1113C81.184 55.1113 81.7691 55.0044 82.2983 54.7907C82.8376 54.5669 83.2751 54.2362 83.6109 53.7986C83.9467 53.3509 84.1146 52.7912 84.1146 52.1197L84.3283 52.2265V53.4018H84.1146C83.8602 54.1242 83.4074 54.6839 82.7562 55.0807C82.1049 55.4776 81.3316 55.676 80.4361 55.676Z" fill="#404040"/>
<path d="M77.9276 50.6392C77.9276 50.0936 78.073 49.589 78.3632 49.1313C78.6564 48.6691 79.0864 48.3048 79.6395 48.0337C80.2009 47.7585 80.8713 47.6265 81.6415 47.6265C82.4108 47.6265 83.0553 47.7632 83.5546 48.0581H83.5536C84.0497 48.3348 84.4219 48.715 84.6591 49.1997L84.7401 49.3765C84.9177 49.7935 85.0057 50.246 85.0057 50.731V55.7729H83.91V54.3423C83.6436 54.7213 83.3035 55.0404 82.8866 55.2944C82.1899 55.719 81.3695 55.9262 80.4364 55.9263C79.6861 55.9263 79.0463 55.754 78.536 55.3911L78.5331 55.3892C78.008 55.0041 77.744 54.4645 77.744 53.7983C77.7441 53.3295 77.8617 52.9257 78.1229 52.6147L78.1268 52.6108L78.2264 52.5054C78.4324 52.3017 78.6806 52.1397 78.9677 52.0181L79.1151 51.9604C79.5019 51.8107 79.923 51.7105 80.3768 51.6577L83.8641 51.2573V50.8071C83.8641 50.0259 83.6779 49.5174 83.3622 49.2183C83.0448 48.9177 82.4833 48.7368 81.6112 48.7368C80.7538 48.7368 80.1318 48.9054 79.7128 49.2085C79.3162 49.4954 79.0985 49.9535 79.0985 50.6392V50.9653H77.9276V50.6392ZM78.6659 53.7524C78.666 53.3341 78.7906 53.0289 79.0399 52.8364L79.1542 52.7603C79.4479 52.5912 79.8663 52.4727 80.4091 52.4048L80.6503 52.3794L84.1141 51.9839V52.1196C84.1141 52.7911 83.9468 53.3507 83.6112 53.7983L83.4803 53.9575C83.1643 54.317 82.7705 54.5946 82.2987 54.7905L82.0975 54.8657C81.6222 55.0294 81.1039 55.1108 80.5428 55.1108V54.8608C81.154 54.8608 81.7053 54.7592 82.2001 54.5601C82.7014 54.352 83.1054 54.0467 83.413 53.646C83.6858 53.281 83.8369 52.8247 83.8593 52.2642L80.6786 52.6274L80.6727 52.6284C80.0255 52.6882 79.569 52.8103 79.2792 52.9771L79.2762 52.979C79.0523 53.1052 78.916 53.3357 78.9159 53.7524C78.9159 54.1274 79.0385 54.3854 79.2635 54.564C79.5044 54.7469 79.9148 54.8608 80.5428 54.8608V55.1108C79.9728 55.1108 79.5353 55.0216 79.2303 54.8423L79.1083 54.7603C78.8502 54.5556 78.7051 54.273 78.6727 53.9126L78.6659 53.7524ZM78.8485 50.7153V50.6392C78.8485 49.9891 79.0321 49.4912 79.3983 49.145L79.5663 49.0063C80.0445 48.6604 80.726 48.4868 81.6112 48.4868C82.5067 48.4868 83.1484 48.6703 83.535 49.0366C83.9215 49.403 84.1141 49.9933 84.1141 50.8071V51.48L80.4052 51.9058C79.9679 51.9566 79.5662 52.0535 79.2001 52.1958L79.0653 52.2485C78.7606 52.3776 78.5101 52.5534 78.3143 52.7759C78.1007 53.0302 77.9941 53.3711 77.994 53.7983C77.994 54.3885 78.2227 54.8522 78.6805 55.188C79.0811 55.4729 79.5794 55.6328 80.1747 55.6685L80.4364 55.6763C81.3316 55.6762 82.1046 55.4773 82.7557 55.0806C83.4069 54.6838 83.8597 54.1242 84.1141 53.4019H84.16V55.5229H84.7557V50.731C84.7557 50.2768 84.6743 49.8572 84.5106 49.4731L84.4354 49.311C84.2217 48.8735 83.8855 48.5273 83.4276 48.2729C82.9799 48.0085 82.3841 47.8765 81.6415 47.8765C80.8989 47.8765 80.2677 48.004 79.7489 48.2583L79.5604 48.3569C79.1343 48.5973 78.8056 48.9002 78.5741 49.2651L78.4813 49.4233C78.2786 49.7974 78.1776 50.2027 78.1776 50.6392V50.7153H78.8485Z" fill="#404040"/>
<path d="M73.181 55.676C72.4077 55.676 71.7259 55.5081 71.1357 55.1723C70.5557 54.8264 70.1029 54.3583 69.7773 53.7681C69.4618 53.1779 69.3041 52.5114 69.3041 51.7686C69.3041 51.0258 69.4618 50.3593 69.7773 49.7691C70.1029 49.1789 70.5557 48.7159 71.1357 48.3802C71.7259 48.0444 72.4077 47.8765 73.181 47.8765C73.8424 47.8765 74.4478 48.0037 74.9973 48.258C75.5468 48.5023 75.9844 48.8482 76.31 49.296C76.6458 49.7437 76.8137 50.2626 76.8137 50.8528V50.9444H76.1421V50.8681C76.1421 50.1253 75.8826 49.5453 75.3636 49.1281C74.8549 48.7007 74.1273 48.487 73.181 48.487C72.0617 48.487 71.2476 48.7872 70.7389 49.3875C70.2301 49.9777 69.9757 50.7714 69.9757 51.7686C69.9757 52.7658 70.2301 53.5646 70.7389 54.1649C71.2476 54.7551 72.0617 55.0502 73.181 55.0502C74.1273 55.0502 74.8549 54.8416 75.3636 54.4244C75.8826 53.9971 76.1421 53.417 76.1421 52.6844V52.5928H76.8137V52.6844C76.8137 53.2644 76.6458 53.7834 76.31 54.2413C75.9844 54.689 75.5468 55.04 74.9973 55.2944C74.4478 55.5488 73.8424 55.676 73.181 55.676Z" fill="#404040"/>
<path d="M75.892 52.6841V52.3433H77.0639V52.6841C77.0639 53.3156 76.8786 53.8857 76.5111 54.3872L76.5121 54.3882C76.1591 54.8735 75.6864 55.2504 75.102 55.521C74.5167 55.7919 73.8752 55.9263 73.1811 55.9263C72.3705 55.9263 71.645 55.7492 71.0121 55.3892L71.0072 55.3872C70.3894 55.0186 69.905 54.5181 69.558 53.8892L69.557 53.8862C69.2202 53.2561 69.0542 52.5482 69.0541 51.769C69.0541 50.9897 69.2202 50.2812 69.557 49.6509L69.558 49.6479C69.9054 49.0183 70.3907 48.5222 71.0102 48.1636L71.0121 48.1626C71.6449 47.8026 72.3705 47.6265 73.1811 47.6265C73.8751 47.6265 74.5168 47.7599 75.102 48.0308H75.101C75.6849 48.2907 76.1572 48.6617 76.5102 49.146L76.64 49.3345C76.9232 49.7834 77.0639 50.292 77.0639 50.853V51.1948H75.892V50.8677C75.8919 50.191 75.6598 49.6865 75.2074 49.3228L75.2025 49.3198C74.7546 48.9435 74.0931 48.7368 73.1811 48.7368C72.1031 48.7368 71.3729 49.0256 70.9291 49.5493L70.9281 49.5503C70.4684 50.0836 70.226 50.8146 70.226 51.769C70.2261 52.7217 70.4673 53.4576 70.9272 54.0015H70.9281C71.3716 54.5159 72.1018 54.8003 73.1811 54.8003V55.0503L72.7758 55.0366C71.863 54.9721 71.1839 54.681 70.7387 54.1646C70.2937 53.6393 70.0433 52.9623 69.9877 52.1333L69.976 51.769C69.976 50.7718 70.2299 49.9774 70.7387 49.3872C71.2475 48.7869 72.0618 48.4868 73.1811 48.4868L73.5258 48.4966C74.3059 48.5433 74.9185 48.7545 75.3637 49.1284C75.8824 49.5455 76.1419 50.1251 76.142 50.8677V50.9448H76.8139V50.853C76.8139 50.3367 76.6852 49.8746 76.4281 49.4673L76.31 49.2964C76.0249 48.9045 75.6542 48.59 75.1977 48.354L74.9975 48.2583C74.5166 48.0357 73.9928 47.9101 73.4262 47.8823L73.1811 47.8765C72.4078 47.8765 71.7263 48.0447 71.1361 48.3804C70.5562 48.7161 70.1033 49.179 69.7777 49.769L69.6664 49.9937C69.4248 50.5268 69.3041 51.119 69.3041 51.769L69.3119 52.0435C69.3464 52.6768 69.5017 53.2516 69.7777 53.7681C70.1034 54.3582 70.5562 54.8264 71.1361 55.1724C71.6524 55.466 72.2386 55.6317 72.8949 55.6685L73.1811 55.6763C73.7597 55.6763 74.2955 55.579 74.7885 55.3843L74.9975 55.2944C75.5468 55.0401 75.9844 54.6893 76.31 54.2417C76.6458 53.7838 76.8139 53.2641 76.8139 52.6841V52.5933H76.142V52.6841C76.142 53.4167 75.8826 53.9969 75.3637 54.4243L75.1625 54.5708C74.6695 54.8902 74.0091 55.0503 73.1811 55.0503V54.8003C74.0941 54.8003 74.7564 54.5982 75.2045 54.231C75.6601 53.8557 75.892 53.3496 75.892 52.6841Z" fill="#404040"/>
<path d="M67.7204 55.5233H67.0335V48.029H67.7204V55.5233ZM67.7204 46.9911H67.0335V45.2969H67.7204V46.9911Z" fill="#404040"/>
<path d="M67.72 48.0293H67.0335V55.5234H67.72V48.0293ZM67.72 45.2969H67.0335V46.9912H67.72V45.2969ZM67.97 55.7734H66.7835V47.7793H67.97V55.7734ZM67.97 47.2412H66.7835V45.0469H67.97V47.2412Z" fill="#404040"/>
<path d="M65.0684 55.5234H64.3815V51.2039C64.3815 50.3593 64.1678 49.6979 63.7404 49.2196C63.3131 48.7312 62.6415 48.487 61.7257 48.487C60.7387 48.487 59.9806 48.7923 59.4515 49.4028C58.9223 50.0133 58.6578 50.8579 58.6578 51.9365L58.3678 51.9518L58.4136 50.3949H58.6272C58.7188 49.9675 58.902 49.5605 59.1767 49.1738C59.4515 48.7872 59.8127 48.4768 60.2604 48.2428C60.7183 47.9986 61.2525 47.8765 61.8631 47.8765C62.5753 47.8765 63.1655 48.0342 63.6336 48.3496C64.1119 48.6549 64.468 49.0619 64.702 49.5707C64.9462 50.0795 65.0684 50.6391 65.0684 51.2497V55.5234ZM58.6578 55.5234H57.9709V48.0291H58.5662V50.4254L58.6578 50.5018V55.5234Z" fill="#404040"/>
<path d="M65.0686 51.2495C65.0686 50.6391 64.9465 50.0795 64.7024 49.5708C64.4976 49.1256 64.1986 48.7586 63.8069 48.4692L63.634 48.3501C63.2244 48.0741 62.7209 47.9188 62.1242 47.8843L61.8635 47.8765C61.253 47.8765 60.7179 47.9985 60.26 48.2427C59.8124 48.4767 59.4517 48.7877 59.177 49.1743L59.0783 49.3198C58.8579 49.6627 58.7073 50.021 58.6272 50.395H58.5666V48.0288H57.9709V55.5229H58.6574V51.936C58.6575 50.925 58.8906 50.1197 59.3557 49.52L59.4514 49.4028C59.9805 48.7923 60.7388 48.4868 61.7258 48.4868L62.0578 48.4985C62.8055 48.552 63.3665 48.792 63.7404 49.2192C64.1678 49.6974 64.381 50.3592 64.3811 51.2036V55.5229H65.0686V51.2495ZM58.8166 49.2681C58.8655 49.1876 58.917 49.1074 58.9729 49.0288C59.2719 48.6079 59.6644 48.2721 60.1447 48.021C60.6443 47.7551 61.22 47.6265 61.8635 47.6265C62.6123 47.6265 63.2548 47.7924 63.7737 48.1421H63.7727C64.2872 48.4717 64.6734 48.913 64.927 49.4624C65.1887 50.0076 65.3186 50.6047 65.3186 51.2495V55.7729H64.1311V51.2036C64.131 50.4008 63.9288 49.8057 63.5539 49.3862L63.4055 49.2378C63.0376 48.9153 62.4909 48.7368 61.7258 48.7368C60.7938 48.7368 60.1121 49.0231 59.6408 49.5669C59.1627 50.1186 58.9075 50.8974 58.9074 51.936V55.7729H57.7209V47.7788H58.8166V49.2681Z" fill="#404040"/>
<path d="M55.9909 55.5233H55.3193V51.2038C55.3193 50.2676 55.0955 49.5808 54.6477 49.1432C54.2 48.7057 53.5284 48.4869 52.633 48.4869C51.9105 48.4869 51.3203 48.6446 50.8624 48.9601C50.4147 49.2653 50.0891 49.6876 49.8856 50.2269C49.6821 50.7662 49.5803 51.3869 49.5803 52.089H49.275L49.4124 50.3185H49.6261C49.7177 49.9013 49.8907 49.5095 50.1451 49.1432C50.3994 48.7667 50.7454 48.4615 51.183 48.2274C51.6205 47.9934 52.1598 47.8764 52.8009 47.8764C53.503 47.8764 54.0932 48.0239 54.5714 48.319C55.0497 48.6039 55.4058 49.0008 55.6398 49.5095C55.8739 50.0183 55.9909 50.5983 55.9909 51.2496V55.5233ZM49.5803 55.5233H48.8935V45.2969H49.5803V55.5233Z" fill="#404040"/>
<path d="M55.9911 51.25C55.9911 50.6804 55.9016 50.1647 55.7226 49.7041L55.6396 49.5098C55.4347 49.0645 55.1369 48.7045 54.745 48.4307L54.5712 48.3193C54.0929 48.0242 53.5028 47.876 52.8007 47.876C52.1597 47.876 51.62 47.9935 51.1825 48.2275L51.0233 48.3184C50.6604 48.5387 50.368 48.8141 50.1454 49.1436L50.0536 49.2822C49.8489 49.6082 49.706 49.9534 49.6259 50.3184H49.58V45.2969H48.8935V55.5234H49.58V52.0889C49.58 51.3868 49.6822 50.7658 49.8857 50.2266C50.0892 49.6875 50.4146 49.2652 50.8622 48.96C51.3201 48.6446 51.9104 48.4873 52.6327 48.4873L52.9579 48.4971C53.6926 48.5449 54.2555 48.7607 54.6474 49.1436C55.0951 49.5811 55.3192 50.268 55.3192 51.2041V55.5234H55.9911V51.25ZM49.83 49.1689C49.865 49.1125 49.901 49.0562 49.9394 49.001C50.2184 48.5888 50.5962 48.2578 51.0653 48.0068C51.5481 47.7487 52.1304 47.626 52.8007 47.626C53.5377 47.626 54.1766 47.7816 54.703 48.1064H54.7021C55.2226 48.4173 55.6125 48.8519 55.8671 49.4053C56.1184 49.9517 56.2411 50.5686 56.2411 51.25V55.7734H55.0692V51.2041C55.0692 50.3021 54.8527 49.6938 54.4726 49.3223C54.0884 48.9469 53.491 48.7373 52.6327 48.7373C51.946 48.7373 51.4091 48.8868 51.0038 49.166L51.0028 49.167C50.6006 49.4414 50.3056 49.8211 50.119 50.3154C49.9283 50.821 49.83 51.4108 49.83 52.0889V55.7734H48.6435V45.0469H49.83V49.1689Z" fill="#404040"/>
<path d="M43.653 55.676C42.8797 55.676 42.1979 55.5081 41.6077 55.1723C41.0277 54.8264 40.5749 54.3583 40.2493 53.7681C39.9338 53.1779 39.7761 52.5114 39.7761 51.7686C39.7761 51.0258 39.9338 50.3593 40.2493 49.7691C40.5749 49.1789 41.0277 48.7159 41.6077 48.3802C42.1979 48.0444 42.8797 47.8765 43.653 47.8765C44.3144 47.8765 44.9199 48.0037 45.4693 48.258C46.0188 48.5023 46.4564 48.8482 46.782 49.296C47.1178 49.7437 47.2857 50.2626 47.2857 50.8528V50.9444H46.6141V50.8681C46.6141 50.1253 46.3546 49.5453 45.8357 49.1281C45.3269 48.7007 44.5993 48.487 43.653 48.487C42.5337 48.487 41.7196 48.7872 41.2109 49.3875C40.7021 49.9777 40.4477 50.7714 40.4477 51.7686C40.4477 52.7658 40.7021 53.5646 41.2109 54.1649C41.7196 54.7551 42.5337 55.0502 43.653 55.0502C44.5993 55.0502 45.3269 54.8416 45.8357 54.4244C46.3546 53.9971 46.6141 53.417 46.6141 52.6844V52.5928H47.2857V52.6844C47.2857 53.2644 47.1178 53.7834 46.782 54.2413C46.4564 54.689 46.0188 55.04 45.4693 55.2944C44.9199 55.5488 44.3144 55.676 43.653 55.676Z" fill="#404040"/>
<path d="M46.364 52.6841V52.3433H47.5359V52.6841C47.5359 53.3156 47.3506 53.8857 46.9832 54.3872L46.9841 54.3882C46.6312 54.8735 46.1584 55.2504 45.574 55.521C44.9887 55.7919 44.3473 55.9263 43.6531 55.9263C42.8425 55.9263 42.117 55.7492 41.4841 55.3892L41.4792 55.3872C40.8614 55.0186 40.3771 54.5181 40.03 53.8892L40.0291 53.8862C39.6922 53.2561 39.5262 52.5482 39.5261 51.769C39.5261 50.9897 39.6922 50.2812 40.0291 49.6509L40.03 49.6479C40.3774 49.0183 40.8627 48.5222 41.4822 48.1636L41.4841 48.1626C42.1169 47.8026 42.8426 47.6265 43.6531 47.6265C44.3472 47.6265 44.9888 47.7599 45.574 48.0308H45.573C46.1569 48.2907 46.6292 48.6617 46.9822 49.146L47.1121 49.3345C47.3952 49.7834 47.5359 50.292 47.5359 50.853V51.1948H46.364V50.8677C46.3639 50.191 46.1318 49.6865 45.6794 49.3228L45.6746 49.3198C45.2266 48.9435 44.5651 48.7368 43.6531 48.7368C42.5751 48.7368 41.8449 49.0256 41.4011 49.5493L41.4001 49.5503C40.9404 50.0836 40.698 50.8146 40.698 51.769C40.6981 52.7217 40.9393 53.4576 41.3992 54.0015H41.4001C41.8436 54.5159 42.5738 54.8003 43.6531 54.8003V55.0503L43.2478 55.0366C42.3351 54.9721 41.6559 54.681 41.2107 54.1646C40.7657 53.6393 40.5154 52.9623 40.4597 52.1333L40.448 51.769C40.448 50.7718 40.7019 49.9774 41.2107 49.3872C41.7195 48.7869 42.5338 48.4868 43.6531 48.4868L43.9978 48.4966C44.7779 48.5433 45.3905 48.7545 45.8357 49.1284C46.3544 49.5455 46.6139 50.1251 46.614 50.8677V50.9448H47.2859V50.853C47.2859 50.3367 47.1572 49.8746 46.9001 49.4673L46.782 49.2964C46.497 48.9045 46.1262 48.59 45.6697 48.354L45.4695 48.2583C44.9886 48.0357 44.4648 47.9101 43.8982 47.8823L43.6531 47.8765C42.8798 47.8765 42.1983 48.0447 41.6082 48.3804C41.0282 48.7161 40.5754 49.179 40.2498 49.769L40.1384 49.9937C39.8968 50.5268 39.7761 51.119 39.7761 51.769L39.7839 52.0435C39.8184 52.6768 39.9737 53.2516 40.2498 53.7681C40.5754 54.3582 41.0282 54.8264 41.6082 55.1724C42.1244 55.466 42.7106 55.6317 43.3669 55.6685L43.6531 55.6763C44.2317 55.6763 44.7676 55.579 45.2605 55.3843L45.4695 55.2944C46.0188 55.0401 46.4564 54.6893 46.782 54.2417C47.1178 53.7838 47.2859 53.2641 47.2859 52.6841V52.5933H46.614V52.6841C46.614 53.4167 46.3546 53.9969 45.8357 54.4243L45.6345 54.5708C45.1415 54.8902 44.4811 55.0503 43.6531 55.0503V54.8003C44.5661 54.8003 45.2284 54.5982 45.6765 54.231C46.1321 53.8557 46.364 53.3496 46.364 52.6841Z" fill="#404040"/>
<path d="M34.978 55.676C34.1741 55.676 33.4821 55.5081 32.9021 55.1723C32.3221 54.8365 31.8744 54.3735 31.559 53.7834C31.2537 53.1932 31.1011 52.5216 31.1011 51.7686C31.1011 51.0258 31.2537 50.3593 31.559 49.7691C31.8744 49.1789 32.3221 48.7159 32.9021 48.3802C33.4821 48.0444 34.1741 47.8765 34.978 47.8765C35.6699 47.8765 36.2906 48.0138 36.8401 48.2886C37.3896 48.5531 37.822 48.9449 38.1375 49.4638C38.4529 49.9726 38.6106 50.5933 38.6106 51.326C38.6106 51.4583 38.6004 51.5854 38.5801 51.7076C38.5699 51.8297 38.5547 51.9314 38.5343 52.0128H31.5132V51.5244H38.2138L37.9543 51.8144C37.9645 51.7126 37.9696 51.6109 37.9696 51.5091C37.9797 51.3972 37.9848 51.2853 37.9848 51.1733C37.9848 50.2982 37.7152 49.6267 37.1759 49.1586C36.6467 48.6905 35.909 48.4565 34.9627 48.4565C33.8536 48.4565 33.0395 48.7516 32.5206 49.3417C32.0118 49.9319 31.7574 50.7154 31.7574 51.6923V51.8297C31.7574 52.8167 32.0118 53.6053 32.5206 54.1955C33.0293 54.7857 33.8434 55.0807 34.9627 55.0807C35.9294 55.0807 36.6467 54.9027 37.1148 54.5465C37.5931 54.1904 37.8322 53.702 37.8322 53.0813V52.9897H38.5038V53.0813C38.5038 53.59 38.3461 54.0428 38.0306 54.4397C37.7253 54.8264 37.3031 55.1316 36.7638 55.3555C36.2346 55.5692 35.6394 55.676 34.978 55.676Z" fill="#404040"/>
<path d="M37.5825 53.0815V52.7397H38.7534V53.0815C38.7534 53.646 38.5762 54.1523 38.2261 54.5933L38.2271 54.5942C37.8909 55.02 37.4312 55.3493 36.8599 55.5864L36.8569 55.5874C36.2938 55.8147 35.6663 55.9263 34.978 55.9263C34.139 55.9263 33.4018 55.7509 32.7769 55.3892C32.1566 55.0301 31.6758 54.5322 31.3384 53.9009L31.3364 53.8979V53.897C31.0109 53.2672 30.8511 52.556 30.8511 51.769C30.8511 50.991 31.0117 50.2835 31.3374 49.6538L31.3384 49.6509C31.6758 49.0197 32.1567 48.5226 32.7769 48.1636C33.4019 47.8018 34.139 47.6265 34.978 47.6265C35.7021 47.6265 36.3604 47.7702 36.9478 48.063C37.54 48.3482 38.0095 48.7728 38.3501 49.3325L38.4712 49.5464C38.7338 50.0574 38.8608 50.6533 38.8608 51.3257C38.8608 51.4632 38.849 51.5971 38.8286 51.7271L38.8296 51.728C38.8188 51.8581 38.8016 51.9748 38.7769 52.0737L38.73 52.2632H37.8882L37.6294 52.5522L37.6587 52.2632H32.0278C32.0921 52.9989 32.3225 53.5839 32.7095 54.0327C33.1529 54.547 33.8833 54.8305 34.9624 54.8306V55.0806C33.9131 55.0805 33.1323 54.821 32.6196 54.3022L32.521 54.1958C32.0442 53.6427 31.7931 52.9149 31.7632 52.0132H38.5347L38.561 51.8755C38.5687 51.8246 38.5755 51.7686 38.5806 51.7075C38.6009 51.5854 38.6108 51.4579 38.6108 51.3257C38.6108 50.5932 38.4526 49.9721 38.1372 49.4634C37.8612 49.0095 37.4956 48.6533 37.0405 48.394L36.8403 48.2886C36.3595 48.0482 35.8238 47.9133 35.2339 47.8833L34.978 47.8765C34.1742 47.8765 33.4819 48.0446 32.9019 48.3804L32.6909 48.5122C32.2124 48.8338 31.8351 49.2527 31.5591 49.769L31.4517 49.9937C31.2179 50.5268 31.1011 51.119 31.1011 51.769L31.1079 52.0474C31.1413 52.6883 31.292 53.2673 31.5591 53.7837C31.8745 54.3737 32.322 54.8366 32.9019 55.1724C33.4095 55.4662 34.0031 55.6318 34.6821 55.6685L34.978 55.6763C35.5567 55.6763 36.0846 55.5938 36.562 55.4302L36.7642 55.356C37.3033 55.1321 37.7255 54.8265 38.0308 54.4399C38.3461 54.0432 38.5034 53.5902 38.5034 53.0815V52.9897H37.8325V53.0815L37.8208 53.3081C37.7684 53.8221 37.5331 54.2348 37.1147 54.5464C36.6467 54.9025 35.9291 55.0806 34.9624 55.0806V54.8306C35.9067 54.8306 36.5589 54.6549 36.9634 54.3472L36.9653 54.3462C37.3772 54.0395 37.5824 53.6269 37.5825 53.0815ZM37.7349 51.1733C37.7349 50.3529 37.4847 49.7572 37.0122 49.3472L37.0103 49.3462C36.5404 48.9306 35.8687 48.7065 34.9624 48.7065C33.8958 48.7066 33.163 48.9885 32.7085 49.5044L32.7095 49.5054C32.3206 49.9567 32.0898 50.5412 32.0269 51.2739H37.73C37.731 51.2404 37.7349 51.2069 37.7349 51.1733ZM37.981 51.3413C37.9784 51.3972 37.9743 51.4533 37.9692 51.5093C37.9692 51.5142 37.9693 51.519 37.9692 51.5239H31.7632C31.7911 50.6251 32.0418 49.8972 32.521 49.3413C33.0399 48.7515 33.8537 48.4566 34.9624 48.4565L35.3081 48.4673C36.0904 48.5185 36.7133 48.7492 37.1763 49.1587C37.7154 49.6268 37.9849 50.2984 37.9849 51.1733L37.981 51.3413Z" fill="#404040"/>
<path d="M26.0216 55.5233H25.35V45.2969H26.0216V55.5233ZM30.3564 45.9227H21V45.2969H30.3564V45.9227Z" fill="#404040"/>
<path d="M30.3564 45.2969H21V45.9229H25.3496V55.5234H26.0215V45.9229H30.3564V45.2969ZM30.6064 46.1729H26.2715V55.7734H25.0996V46.1729H20.75V45.0469H30.6064V46.1729Z" fill="#404040"/>
</svg>
